<svg xmlns="http://www.w3.org/2000/svg" width="1280" height="800" viewBox="0 0 1280 800" role="img" aria-labelledby="title desc">
  <title id="title">Command Center Placeholder</title>
  <desc id="desc">A public-safe placeholder image representing the static NEXUS Command Center dashboard.</desc>
  <defs>
    <linearGradient id="bg" x1="0" y1="0" x2="1" y2="1">
      <stop offset="0%" stop-color="#09111f"/>
      <stop offset="100%" stop-color="#142841"/>
    </linearGradient>
  </defs>
  <rect width="1280" height="800" fill="url(#bg)"/>
  <rect x="40" y="40" width="220" height="720" rx="28" fill="#0d1c33" stroke="#2d4971"/>
  <rect x="300" y="40" width="940" height="120" rx="28" fill="#0d1c33" stroke="#35567d"/>
  <rect x="300" y="190" width="940" height="180" rx="28" fill="#10213b" stroke="#3a618f"/>
  <rect x="300" y="400" width="450" height="320" rx="28" fill="#10213b" stroke="#3a618f"/>
  <rect x="790" y="400" width="450" height="150" rx="28" fill="#10213b" stroke="#3a618f"/>
  <rect x="790" y="570" width="450" height="150" rx="28" fill="#10213b" stroke="#3a618f"/>
  <g font-family="Helvetica, Arial, sans-serif">
    <text x="92" y="105" fill="#eef4ff" font-size="28">NEXUS</text>
    <text x="92" y="136" fill="#8ea4c6" font-size="16">Command Center</text>
    <text x="336" y="98" fill="#eef4ff" font-size="34">Mission Control</text>
    <text x="336" y="132" fill="#93a7c7" font-size="16">Static DemoApp showcase placeholder</text>
    <text x="336" y="250" fill="#eef4ff" font-size="28">Founder intent → contracts → gates → evidence → release</text>
    <text x="336" y="286" fill="#93a7c7" font-size="16">Public-safe, zero-key, read-only demo surface</text>
    <text x="336" y="448" fill="#eef4ff" font-size="24">Task Queue / Gates / Evidence</text>
    <text x="826" y="448" fill="#eef4ff" font-size="24">Runtime / Cost</text>
    <text x="826" y="618" fill="#eef4ff" font-size="24">Safety / Approvals / Release</text>
    <text x="92" y="220" fill="#8ea4c6" font-size="14">Mission Control</text>
    <text x="92" y="258" fill="#8ea4c6" font-size="14">Projects</text>
    <text x="92" y="296" fill="#8ea4c6" font-size="14">Tasks</text>
    <text x="92" y="334" fill="#8ea4c6" font-size="14">Agents</text>
    <text x="92" y="372" fill="#8ea4c6" font-size="14">Contracts</text>
    <text x="92" y="410" fill="#8ea4c6" font-size="14">Gates</text>
    <text x="92" y="448" fill="#8ea4c6" font-size="14">Evidence</text>
    <text x="92" y="486" fill="#8ea4c6" font-size="14">Runtime</text>
  </g>
</svg>
